<svg class="txp_svg_sprite txp_svg_sprite_head" display="none"
		version="1.1" xmlns="http://www.w3.org/2000/svg">
		<symbol id="svg_icon_vip_flat" viewBox="0 0 20 20">
			<path
			d="M18.65 8.855l-3.507 3.798.572 5.185-.019.015c.009.054.033.104.033.16a.991.991 0 0 1-1.367.912l-.015.012L9.5 16.774l-4.805 2.115-.011-.007a.986.986 0 0 1-.448.118.992.992 0 0 1-.997-.986c0-.041.019-.076.023-.115l-.012-.009.188-1.626a20.747 20.747 0 0 0 2.1-.681l-.089.764L9.5 14.578l3.996 1.766-.456-4.417 2.979-3.099-1.231-.25c.444-.591.856-1.205 1.237-1.842l2.193.417.008.025c.44.102.774.475.774.942 0 .297-.14.554-.35.735zm-2.557-4.417C13.523 9.924 8.525 14 2.481 15.391a.978.978 0 0 1-.481.14 1 1 0 0 1-1-1c0-.473.335-.851.777-.955l-.009-.039a17.968 17.968 0 0 0 12.494-9.905.997.997 0 0 1 1.926.368c0 .156-.043.3-.107.432l.012.006zM9.5 4.059L7.365 7.932l-4.353.833 2.365 2.533c-.65.314-1.319.594-2.012.824L.352 8.857A.968.968 0 0 1 0 8.12c0-.443.3-.804.707-.928l.011-.044 5.333-.997 2.537-4.618h.041A.986.986 0 0 1 9.5 1c.378 0 .696.217.865.525h.038l1.954 3.552a16.898 16.898 0 0 1-1.316 1.822L9.5 4.059z"></path>
		</symbol>
		<symbol id="svg_icon_film_lg" viewBox="0 0 36 36">
			<path
			d="M30 18.5a4.5 4.5 0 1 1-9 0 4.5 4.5 0 0 1 9 0zm-6 0a1.5 1.5 0 1 0 3 0 1.5 1.5 0 0 0-3 0zM18.5 7a4.5 4.5 0 1 1 0 9 4.5 4.5 0 0 1 0-9zm0 6a1.5 1.5 0 1 0 0-3 1.5 1.5 0 0 0 0 3zm0 8a4.5 4.5 0 1 1 0 9 4.5 4.5 0 0 1 0-9zm0 6a1.5 1.5 0 1 0 0-3 1.5 1.5 0 0 0 0 3zM7 18.5a4.5 4.5 0 1 1 9 0 4.5 4.5 0 0 1-9 0zm6 0a1.5 1.5 0 1 0-2.999-.001A1.5 1.5 0 0 0 13 18.5zm17.586 9.641a1.476 1.476 0 0 1-1.133.547 1.5 1.5 0 0 1-1.5-1.5c0-.331.128-.621.31-.869l-.012-.009A12.442 12.442 0 0 0 31 18.5C31 11.596 25.403 6 18.5 6 11.596 6 6 11.596 6 18.5 6 25.403 11.596 31 18.5 31c.183 0 .36-.02.541-.027L19 31l.182.064c.105-.023.205-.064.318-.064h13a1.5 1.5 0 1 1 0 3h-13c-.07 0-.13-.031-.198-.04-.267.014-.531.04-.802.04C9.939 34 3 27.06 3 18.5S9.939 3 18.5 3C27.06 3 34 9.939 34 18.5c0 3.656-1.273 7.01-3.391 9.66l-.023-.019z"></path>
		</symbol>
		<symbol id="svg_icon_noad_lg" viewBox="0 0 36 36">
			<path
			d="M30.699 28.046l-.01-.008c-.275.341-.678.572-1.15.572a1.5 1.5 0 0 1-1.5-1.499c0-.355.142-.667.348-.924l-.024-.019A12.411 12.411 0 0 0 31 18.515c0-6.896-5.597-12.487-12.5-12.487-1.772 0-3.45.383-4.976 1.051L26.82 29.887c.402.707.164 1.61-.534 2.018-.039.022-.082.023-.122.042A15.4 15.4 0 0 1 18.5 34C9.939 34 3 27.067 3 18.515c0-3.657 1.276-7.012 3.398-9.661.007-.007.011-.017.018-.024l.004-.005.001.001a1.5 1.5 0 0 1 2.553 1.066c0 .389-.157.735-.4 1.001l.023.022A12.41 12.41 0 0 0 6 18.515c0 6.896 5.596 12.487 12.5 12.487 1.772 0 3.449-.383 4.974-1.05L10.181 7.15a1.488 1.488 0 0 1 .534-2.018c.022-.013.047-.012.07-.024a15.408 15.408 0 0 1 7.716-2.078c8.56 0 15.5 6.933 15.5 15.484a15.402 15.402 0 0 1-3.302 9.532zM14 22.5a1.5 1.5 0 0 1-1.5 1.5h-.364l-.136.5a1.5 1.5 0 0 1-3 0l3-11c0-.201.042-.391.114-.565l5.136 8.813L18 24.5a1.5 1.5 0 0 1-3 0L13.5 19l-.569 2.087c.614.187 1.069.737 1.069 1.413zm6-6.621V13.5a1.5 1.5 0 0 1 1.5-1.5h4.432a1.49 1.49 0 0 1 1.332.842l.016-.01A11.933 11.933 0 0 1 29 19c0 2.258-.636 4.363-1.72 6.167l-2.57-1.542A8.947 8.947 0 0 0 26 19a8.89 8.89 0 0 0-.967-4H23v6.021l-3-5.142z"></path>
		</symbol>
		<symbol id="svg_icon_hd_lg" viewBox="0 0 36 36">
			<path
			d="M28 32H8a5 5 0 0 1-5-5V9a5 5 0 0 1 5-5h20a5 5 0 0 1 5 5v18a5 5 0 0 1-5 5zm2-23a2 2 0 0 0-2-2H8a2 2 0 0 0-2 2v18a2 2 0 0 0 2 2h20a2 2 0 0 0 2-2V9zm-3.732 15.161a1.49 1.49 0 0 1-1.33.839 1.5 1.5 0 0 1-1.5-1.5c0-.326.125-.611.302-.856l-.03-.018A8.953 8.953 0 0 0 25 18a8.894 8.894 0 0 0-.967-4H22v9.5a1.5 1.5 0 1 1-3 0v-11a1.5 1.5 0 0 1 1.5-1.5h4.432a1.49 1.49 0 0 1 1.332.842l.016-.01A11.933 11.933 0 0 1 28 18c0 2.258-.636 4.363-1.721 6.167l-.011-.006zM15.5 25a1.5 1.5 0 0 1-1.5-1.5v-11a1.5 1.5 0 1 1 3 0v11a1.5 1.5 0 0 1-1.5 1.5zm-3.542-6H11v4.5a1.5 1.5 0 1 1-3 0v-11a1.5 1.5 0 1 1 3 0V16h.958a1.5 1.5 0 1 1 0 3z"></path>
		</symbol>
		<symbol id="svg_icon_message" viewBox="0 0 20 20">
			<path
			d="M6 9.5a1.5 1.5 0 1 1 2.999-.001A1.5 1.5 0 0 1 6 9.5zm5 0a1.5 1.5 0 1 1 2.999-.001A1.5 1.5 0 0 1 11 9.5zm5.76 5.404a.98.98 0 0 1-.791.417 1 1 0 0 1-1-1 .98.98 0 0 1 .369-.758l-.025-.028A5.618 5.618 0 0 0 17 9.5C17 6.462 14.676 4 11.809 4H8.191C5.324 4 3 6.462 3 9.5S5.324 15 8.191 15h3.618c.065 0 .126-.018.191-.021v.014c.299-.018.604.076.833.305l1.835 1.835a1.084 1.084 0 1 1-1.534 1.534L11.466 17H8.242C4.242 17 1 13.642 1 9.5S4.242 2 8.242 2h3.517C15.758 2 19 5.358 19 9.5a7.59 7.59 0 0 1-2.24 5.404z"></path>
		</symbol>
		<symbol id="svg_icon_client" viewBox="0 0 20 20">
			<path
			d="M16 15H4a2 2 0 0 1-2-2V5a2 2 0 0 1 2-2h12a2 2 0 0 1 2 2v8a2 2 0 0 1-2 2zm0-10H4v8h12V5zM7 16h6a1 1 0 0 1 0 2H7a1 1 0 0 1 0-2z"></path>
		</symbol>
		<symbol id="svg_icon_upload" viewBox="0 0 20 20">
			<path
			d="M17.818 14.444A8.987 8.987 0 0 1 10 19c-3.241 0-6.063-1.725-7.648-4.294a.99.99 0 0 1-.316-.723 1 1 0 0 1 1-1c.383 0 .706.223.874.54l.058-.029C5.179 15.58 7.413 17 10 17c2.58 0 4.809-1.412 6.022-3.489l.043.021a.988.988 0 0 1 .865-.528 1 1 0 0 1 1 1 .957.957 0 0 1-.112.44zm-5.572-7.769L11 5.429V12a1 1 0 0 1-2 0V5.469L7.765 6.704a1.04 1.04 0 0 1-1.469-1.47l2.938-2.938c.211-.211.491-.303.767-.293.282-.015.568.076.784.292l2.92 2.92a1.033 1.033 0 0 1-1.459 1.46z"></path>
		</symbol>
		<symbol id="svg_icon_time" viewBox="0 0 20 20">
			<path
			d="M10 12a1 1 0 0 1-1-1V6a1 1 0 0 1 2 0v4h2a1 1 0 0 1 0 2h-3zm7.911 2.253a.988.988 0 0 1-.949.747 1 1 0 0 1-1-1c0-.204.076-.382.18-.54l-.068-.042c.572-1.015.926-2.17.926-3.418a7 7 0 1 0-7 7c1.284 0 2.472-.371 3.507-.975l.022.04a.97.97 0 0 1 .471-.134 1 1 0 0 1 1 1c0 .37-.21.679-.508.852l.003.006c-.015.009-.032.015-.047.023-.032.017-.061.034-.095.047A8.924 8.924 0 0 1 10 19a9 9 0 0 1-9-9 9 9 0 0 1 18 0 8.931 8.931 0 0 1-1.089 4.253z"></path>
		</symbol>
		<symbol id="svg_icon_search" viewBox="0 0 20 20">
			<path
			d="M18.704 18.704a1.04 1.04 0 0 1-1.47 0l-1.938-1.938a1.038 1.038 0 1 1 1.469-1.469l1.939 1.938a1.04 1.04 0 0 1 0 1.469zM9 17A8 8 0 1 1 9 1a8 8 0 0 1 0 16zM9 3a6 6 0 1 0 0 12A6 6 0 0 0 9 3z"></path>
		</symbol>
		<symbol id="svg_icon_menu_sm" viewBox="0 0 16 16">
			<path
			d="M13 14h-3a1 1 0 0 1-1-1v-3a1 1 0 0 1 1-1h3a1 1 0 0 1 1 1v3a1 1 0 0 1-1 1zm0-7h-3a1 1 0 0 1-1-1V3a1 1 0 0 1 1-1h3a1 1 0 0 1 1 1v3a1 1 0 0 1-1 1zm-7 7H3a1 1 0 0 1-1-1v-3a1 1 0 0 1 1-1h3a1 1 0 0 1 1 1v3a1 1 0 0 1-1 1zm0-7H3a1 1 0 0 1-1-1V3a1 1 0 0 1 1-1h3a1 1 0 0 1 1 1v3a1 1 0 0 1-1 1z"></path>
		</symbol>
		<symbol id="svg_icon_home_sm" viewBox="0 0 16 16">
			<path
			d="M14.694 9.7c-.409.41-1.072.41-1.48 0L7.996 4.468 4.381 8.076c.024.01.042.028.065.04.08.041.154.089.22.148.031.028.057.06.085.092.05.059.092.122.128.19.018.036.037.068.051.105.04.106.068.219.069.34L5 8.998V13h5.969v-1.002c0-.551.447-.998.998-.998h.004c.551 0 .998.447.998.998v1.848c.008.052.031.099.031.154a1 1 0 0 1-1 1H3.998A.998.998 0 0 1 3 14.002V10H2a.996.996 0 0 1-.713-.301c-.002-.003-.005-.003-.007-.005a1.044 1.044 0 0 1 0-1.478l5.922-5.911a1.02 1.02 0 0 1 .42-.244c.382-.164.84-.093 1.151.219l5.921 5.936a1.05 1.05 0 0 1 0 1.484z"></path>
		</symbol>
		<symbol id="svg_icon_wechat" viewBox="0 0 20 20">
			<path
			d="M13.4 7.6h.7c-.6-2.7-3.6-4.8-7.1-4.8-3.9 0-7 2.6-7 6 0 1.9 1.1 3.5 2.8 4.7l-.7 2.1 2.5-1.2c.9.2 1.6.4 2.5.4h.7c-.1-.5-.2-1-.2-1.5-.1-3.2 2.5-5.7 5.8-5.7zM9.7 5.7c.5 0 .9.3.9.9 0 .5-.3.9-.9.9-.5 0-1.1-.4-1.1-.9s.5-.9 1.1-.9zm-5 1.8c-.5 0-1.1-.4-1.1-.9s.5-.9 1.1-.9.9.3.9.9c0 .5-.3.9-.9.9z"></path>
		<path
			d="M19.8 13.1c0-2.8-2.8-5.1-6-5.1-3.3 0-6 2.3-6 5.1s2.6 5.1 6 5.1c.7 0 1.4-.2 2.1-.4l1.9 1.1-.5-1.8c1.5-1 2.5-2.4 2.5-4zm-7.9-.9c-.3 0-.7-.3-.7-.7 0-.3.4-.7.7-.7.5 0 .9.4.9.7 0 .4-.3.7-.9.7zm3.9 0c-.3 0-.7-.3-.7-.7 0-.3.4-.7.7-.7.5 0 .9.4.9.7 0 .4-.4.7-.9.7z"></path>
		</symbol>
		<symbol id="svg_icon_qq" viewBox="0 0 20 20">
			<path
			d="M16.3 13.7c-.3.7-.7 1.3-1.2 1.8 1.1.3.8.9.8.9.5.3.5 2-2.3 2-1.8 0-2.6-.5-2.9-.9H10c-.3 0-.6 0-.9-.1-.3.3-1.1.9-2.9.9-2.7 0-2.7-1.7-2.2-2 0 0-.3-.6 1-.9-.5-.6-.9-1.2-1.2-2-1.1 2-1.7.7-1.6-.9.1-1.4 1.3-2.9 1.6-3.3V9c0-.3.1-.6.4-.9v-.2c0-.3.2-.6.4-.8V7c0-3 2.5-5.5 5.6-5.5S15.7 4 15.7 7v.3c.2.2.3.4.3.6v.2c.2.2.4.5.4.8 0 .2 0 .3-.1.5.3.4 1.5 1.9 1.6 3.3-.1 1.5-.6 2.8-1.6 1z"></path>
		</symbol>
		<symbol id="svg_icon_collect" viewBox="0 0 20 20">
			<path
			d="M19 15h-2v2a1 1 0 0 1-2 0v-2h-2a1 1 0 0 1 0-2h2v-2a1 1 0 0 1 2 0v2h2a1 1 0 0 1 0 2zm-.067-7c0 .049-.021.091-.028.138-.004.021 0 .042-.004.063l-.008-.001a.986.986 0 0 1-.96.8 1 1 0 0 1-1-1c0-.054.022-.101.031-.153l-.019-.003c.184-.882.057-1.979-.881-2.927-.471-.476-1.418-.91-2.252-.91-1.427 0-2.266 1.172-3.131 1.802L9.496 6.894 8.287 5.828c-.594-.561-1.746-1.823-3.144-1.823-.834 0-1.679.316-2.253.897-1.31 1.323-1.105 3.318-.176 4.34l6.751 6.069.016-.015 1.153 1.037-.017.017a.985.985 0 0 1 .254.649 1 1 0 0 1-1 1 .988.988 0 0 1-.647-.252l-.005.004-.037-.033c-.008-.008-.017-.014-.024-.022l-7.65-6.781c-2.013-2.054-2.013-5.349-.03-7.373A5.074 5.074 0 0 1 5.131 2c1.383 0 2.681.548 3.655 1.543l.706.722.707-.722A5.072 5.072 0 0 1 13.853 2c1.383 0 2.681.548 3.654 1.543 1.17 1.195 1.624 2.831 1.413 4.389.001.024.013.044.013.068zm-9.441 9.994l-.033-.029h.065l-.032.029z"></path>
		</symbol>
		<symbol id="svg_icon_follow" viewBox="0 0 20 20">
			<path
			d="M18.65 8.855l-2.583 2.797-.007-.006a.984.984 0 0 1-.747.354.992.992 0 1 1-.726-1.679l-.002-.001.01-.011.023-.024 1.401-1.457-4.416-.896L9.5 4.059 7.365 7.932l-4.353.833 2.952 3.161-.515 4.42L9.5 14.578l3.996 1.766L13.253 14h.028a1 1 0 0 1 2 0h.011l.423 3.838-.019.015c.009.054.033.104.033.16a.991.991 0 0 1-1.367.912l-.015.012L9.5 16.774l-4.805 2.115-.011-.007a.986.986 0 0 1-.448.118.992.992 0 0 1-.997-.986c0-.041.019-.076.023-.115l-.012-.009.605-5.236L.352 8.857A.97.97 0 0 1 0 8.12c0-.443.3-.804.707-.928l.011-.044 5.333-.997 2.537-4.618h.041A.986.986 0 0 1 9.5 1c.378 0 .696.217.865.525h.038l2.545 4.627 5.269 1.002.008.025c.441.101.775.474.775.941 0 .297-.14.554-.35.735z"></path>
		</symbol>
		<symbol id="svg_icon_user" viewBox="0 0 20 20">
			<path
			d="M17.237 17.999a1 1 0 0 1-1 1 .981.981 0 0 1-.793-.421l-.012.009A6.986 6.986 0 0 0 10 16a6.983 6.983 0 0 0-5.455 2.618l-.02-.016a.982.982 0 0 1-.773.391 1 1 0 0 1-1-1c0-.24.096-.451.236-.623l-.003-.003.022-.024c.024-.027.044-.055.071-.079A8.97 8.97 0 0 1 10 14c2.8 0 5.292 1.286 6.942 3.292l.004.004c.028.034.06.063.086.097l-.014.01a.974.974 0 0 1 .219.596zM10 13a6 6 0 0 1 0-12 6 6 0 0 1 0 12zm0-10a4 4 0 1 0 0 8 4 4 0 0 0 0-8z"></path>
		</symbol>
		<symbol id="svg_icon_folder" viewBox="0 0 20 20">
			<path
			d="M18 18H2a1 1 0 0 1-1-1V3a1 1 0 0 1 1-1h7a1 1 0 0 1 1 1v2h8a1 1 0 0 1 1 1v11a1 1 0 0 1-1 1zM17 7H9a1 1 0 0 1-1-1V4H3v12h14V7zM5 13h1a1 1 0 0 1 0 2H5a1 1 0 0 1 0-2zm4 0h2a1 1 0 0 1 0 2H9a1 1 0 0 1 0-2zm5 0h1a1 1 0 0 1 0 2h-1a1 1 0 0 1 0-2zm4-9h-6a1 1 0 0 1 0-2h6a1 1 0 0 1 0 2z"></path>
		</symbol>
		<symbol id="svg_icon_mark_new" viewBox="0 0 23 14">
			<path
			d="M21 0H2a2 2 0 0 0-2 2v10a2 2 0 0 0 2 2h19a2 2 0 0 0 2-2V2a2 2 0 0 0-2-2z"
			fill="#fa5058"></path>
		<path
			d="M7 8H6v2h1v1h1V3H7v5zM4 4V3H3v8h1V6h1V4H4zm1 2v2h1V6H5zm4 5h5v-1h-4V7h4V6h-4V4h4V3H9v8zm6-8v7h1V3h-1zm3 8h1v-1h-1v1zm1-8v7h1V3h-1zm-2 1v6h1V4h-1zm-1 7h1v-1h-1v1z"
			fill="#fff"></path>
		</symbol>
		<symbol id="svg_icon_notice_sm" viewBox="0 0 16 16">
			<path
			d="M15 13c0 .552-.448 1-1 1h-4c0 1.104-.896 2-2 2s-2-.896-2-2h-4c-.552 0-1-.448-1-1 0-.191.068-.36.162-.512-.18-.318-.208-.717-.018-1.059l1.856-3.693v-1.736c0-2.426 1.728-4.445 4.02-4.901l-.02-.099c0-.552.448-1 1-1s1 .448 1 1l-.02.099c2.292.456 4.02 2.475 4.02 4.901v1.736l1.856 3.693c.191.342.162.741-.018 1.059.094.152.162.321.162.512zm-3.86-4.55c-.084-.143-.114-.296-.12-.45h-.02v-2c0-1.657-1.343-3-3-3s-3 1.343-3 3v2h-.02c-.006.154-.036.307-.12.45l-1.709 3.55h9.698l-1.709-3.55z"></path>
		</symbol>
		<symbol id="svg_icon_play" viewBox="0 0 20 20">
			<path
			d="M13.494 10.384v.014l-4.639 2.921a.495.495 0 0 1-.842-.284l-.014-.005V7.093l.006-.003c0-.01-.006-.019-.006-.028a.5.5 0 0 1 .5-.5.49.49 0 0 1 .296.107l.02-.01 4.697 2.957v.011a.493.493 0 0 1 .174.373.49.49 0 0 1-.192.384zm4.417 3.868a.988.988 0 0 1-.949.748 1 1 0 0 1-1-1c0-.204.076-.382.18-.54l-.068-.042c.572-1.016.926-2.17.926-3.418a7 7 0 1 0-7 7c1.284 0 2.472-.371 3.507-.975l.022.039A.97.97 0 0 1 14 15.93a1 1 0 0 1 1 1c0 .37-.21.679-.508.853l.003.006c-.015.009-.032.015-.047.023-.032.016-.061.034-.095.047A8.924 8.924 0 0 1 10 19c-4.971 0-9-4.029-9-9s4.029-9 9-9a9 9 0 0 1 9 9 8.925 8.925 0 0 1-1.089 4.252z"></path>
		</symbol>
		<symbol id="svg_icon_bubble" viewBox="0 0 20 20">
			<path
			d="M7 10h3a1 1 0 0 1 0 2H7a1 1 0 0 1 0-2zm0-3h6a1 1 0 0 1 0 2H7a1 1 0 0 1 0-2zm9.801 7.858a.982.982 0 0 1-.801.432 1 1 0 0 1-1-1c0-.282.119-.535.307-.717l-.017-.019A5.614 5.614 0 0 0 17 9.5C17 6.462 14.676 4 11.809 4H8.191C5.324 4 3 6.462 3 9.5 3 12.537 5.324 15 8.191 15h3.618c.065 0 .126-.018.191-.02v.013c.299-.018.604.077.833.305l1.835 1.835a1.084 1.084 0 1 1-1.534 1.534L11.466 17H8.242C4.242 17 1 13.642 1 9.5S4.242 2 8.242 2h3.517C15.758 2 19 5.357 19 9.5a7.587 7.587 0 0 1-2.199 5.358z"></path>
		</symbol>
		<symbol id="svg_icon_share" viewBox="0 0 20 20">
			<path
			d="M19 8c0 .552-.448 1-1 1s-1-.448-1-1v-3.466l-6.133 6.133c-.424.424-1.11.424-1.534 0-.423-.423-.424-1.11 0-1.534l6.133-6.133h-3.466c-.552 0-1-.448-1-1s.448-1 1-1h5.75c.206-.034.419-.011.614.073.258.102.462.305.563.563.049.114.066.234.072.354l.001.01-.002.008.002.159v5.833zm-9-7l.065.003h-.13l.065-.003zm-2.693 2.526l.005.012c-2.531 1.054-4.312 3.548-4.312 6.462 0 3.866 3.134 7 7 7 2.938 0 5.444-1.815 6.482-4.381.148-.366.505-.625.924-.625.552 0 1 .448 1 1 0 .145-.034.281-.089.405l.012.005c-1.342 3.281-4.563 5.596-8.329 5.596-4.97 0-9-4.029-9-9 0-3.759 2.306-6.976 5.579-8.323.122-.053.255-.084.397-.084.552 0 1 .448 1 1 0 .435-.281.795-.669.933z"></path>
		</symbol>
		<symbol id="svg_icon_date" viewBox="0 0 20 20">
			<path
			d="M17 19h-14c-1.104 0-2-.895-2-2v-12c0-1.104.896-2 2-2h2c0-.552.448-1 1-1s1 .447 1 1h6c0-.552.448-1 1-1s1 .447 1 1h2c1.104 0 2 .896 2 2v12c0 1.104-.896 2-2 2zm0-14h-1v-2h-1v2c0 .552-.448 1-1 1s-1-.448-1-1v-2h-1v2h-4v-2h-1v2c0 .552-.448 1-1 1s-1-.448-1-1v-2h-1v2h-1v12h14v-12zm-11 4c.552 0 1 .448 1 1s-.448 1-1 1c-.553 0-1-.448-1-1s.447-1 1-1zm0 4c.552 0 1 .447 1 1 0 .552-.448 1-1 1-.553 0-1-.448-1-1 0-.553.447-1 1-1zm4-4c.552 0 1 .448 1 1s-.448 1-1 1c-.553 0-1-.448-1-1s.447-1 1-1zm0 4c.552 0 1 .447 1 1 0 .552-.448 1-1 1-.553 0-1-.448-1-1 0-.553.447-1 1-1zm4-4c.552 0 1 .448 1 1s-.448 1-1 1c-.553 0-1-.448-1-1s.447-1 1-1zm0 4c.552 0 1 .447 1 1 0 .552-.448 1-1 1-.553 0-1-.448-1-1 0-.553.447-1 1-1z"></path>
		</symbol>
		<symbol id="svg_icon_vcoin" viewBox="0 0 20 20">
			<path
			d="M3 10c0-3.866 3.134-7 7-7s7 3.134 7 7-3.134 7-7 7-7-3.134-7-7zm-2 0c0 4.971 4.029 9 9 9s9-4.029 9-9-4.029-9-9-9-9 4.029-9 9zm12.609-1.562s.453-.938-.453-1.328c-.922-.313-1.156.515-1.156.515l-2 3.813-2-3.813s-.203-.844-1.156-.516c-.906.391-.453 1.329-.453 1.329l2.609 4.671s.281.734 1 .734l1-.734 2.609-4.671z"></path>
		</symbol>
		<symbol id="svg_icon_video_sm" viewBox="0 0 16 16">
			<path
			d="M14 11a1 1 0 0 1-1-1V6a1 1 0 0 1 2 0v4a1 1 0 0 1-1 1zm-4 3H3a2 2 0 0 1-2-2V4a2 2 0 0 1 2-2h7a2 2 0 0 1 2 2v8a2 2 0 0 1-2 2zm0-10H3v8h7V4zM5.5 8a1.5 1.5 0 1 1 0 3 1.5 1.5 0 0 1 0-3z"></path>
		</symbol>
		<symbol id="svg_icon_login" viewBox="0 0 20 20">
			<path
			d="M18 11h-6.509l1.215 1.215c.403.403.403 1.057 0 1.46s-1.057.403-1.46 0l-2.92-2.92c-.103-.103-.178-.223-.229-.35l-.022-.034c-.158-.378-.086-.829.221-1.137l2.938-2.938c.406-.406 1.064-.406 1.47 0s.406 1.063 0 1.469l-1.234 1.235h6.53c.552 0 1 .448 1 1s-.448 1-1 1zm-2-4c-.552 0-1-.448-1-1v-2h-10v12h10v-2c0-.553.448-1 1-1s1 .447 1 1v2c0 1.104-.896 2-2 2h-10c-1.104 0-2-.896-2-2v-12c0-1.104.896-2 2-2h10c1.104 0 2 .896 2 2v2c0 .552-.448 1-1 1z"></path>
		</symbol>
        <!-- 搜索框 start-->
		<symbol id="svg_icon_search_hot" viewBox="0 0 20 20">
			<path
			d="M16 6h-1c-.553 0-1 .447-1 1v12h3v-12c0-.553-.447-1-1-1zm-6-5h-1c-.552 0-1 .447-1 1v17h3v-17c0-.553-.448-1-1-1zm-6 9h-1c-.552 0-1 .447-1 1v8h3v-8c0-.553-.448-1-1-1z"></path>
		</symbol>
        <symbol id="svg_icon_trash_sm" viewBox="0 0 16 16">
            <path
			d="M14 6H2a1 1 0 0 1 0-2h12a1 1 0 0 1 0 2zM9 3H7a1 1 0 0 1 0-2h2a1 1 0 0 1 0 2zm-4 8V8a1 1 0 0 1 2 0v3a1 1 0 0 1-2 0zm4 0V8a1 1 0 0 1 2 0v3a1 1 0 0 1-2 0zM2 8a1 1 0 0 1 2 0V12.999h8V8a1 1 0 0 1 2 0V12.999a2 2 0 0 1-2 2H4a2 2 0 0 1-2-2v-6-.004V8z"></path>
        </symbol>
        <symbol id="svg_icon_down_sm" viewBox="0 0 16 16">
            <path
			d="M12.71 7.716L8.716 11.71a1.003 1.003 0 0 1-.716.295c-.259 0-.519-.097-.716-.295L3.289 7.716a1.01 1.01 0 0 1 1.427-1.427L8 9.573l3.284-3.284a1.01 1.01 0 1 1 1.426 1.427z"></path>
        </symbol>
        <symbol id="svg_icon_up_sm" viewBox="0 0 16 16">
            <path
			d="M12.71 9.71a1.01 1.01 0 0 1-1.427 0L8 6.427 4.716 9.71a1.01 1.01 0 0 1-1.427-1.427l3.995-3.995c.197-.197.457-.295.716-.294.259-.001.518.097.716.295l3.994 3.995a1.008 1.008 0 0 1 0 1.426z"></path>
        </symbol>
        <symbol id="svg_icon_right_sm" width="16" height="16"
			viewBox="0 0 16 16">
            <path
			d="M11.71 8.716L7.716 12.71a1.01 1.01 0 0 1-1.427-1.427L9.573 8 6.289 4.716a1.01 1.01 0 0 1 1.427-1.427l3.994 3.994c.198.198.296.458.295.717.001.259-.097.518-.295.716z"></path>
        </symbol>
        <symbol id="svg_icon_search_hot_sm" viewBox="0 0 16 16">
			<path
			d="M14 7h-1c-.553 0-1 .447-1 1v7h3v-7c0-.553-.447-1-1-1zm-5-6h-1c-.552 0-1 .447-1 1v13h3v-13c0-.553-.447-1-1-1zm-5 4h-1c-.552 0-1 .447-1 1v9h3v-9c0-.553-.448-1-1-1z"></path>
		</symbol>
        <!-- 搜索框 end-->
	</svg>